# AST/ASF file generated using VICON BodyLanguage
# -----------------------------------------------
:version 1.10
:name VICON
:units
  mass 1.0
  length 0.45
  angle deg
:documentation
   .ast/.asf automatically generated from VICON data using
   VICON BodyBuilder and BodyLanguage model FoxedUp or BRILLIANT.MOD
:root
   order TX TY TZ RX RY RZ
   axis XYZ
   position 0 0 0  
   orientation 0 0 0 
:bonedata
  begin
     id 1 
     name lhipjoint
     direction 0.653368 -0.678499 0.335782 
     length 2.51848 
     axis 0 0 0  XYZ
  end
  begin
     id 2 
     name lfemur
     direction 0.34202 -0.939693 0  
     length 6.57749  
     axis 0 0 20  XYZ
    dof rx ry rz
    limits (-160.0 20.0)
           (-70.0 70.0)
           (-60.0 70.0)
  end
  begin
     id 3 
     name ltibia
     direction 0.34202 -0.939693 0   
     length 7.94618   
     axis 0 0 20   XYZ
    dof rx
    limits (-10.0 170.0)
  end
  begin
     id 4 
     name lfoot
     direction 0.0811271 -0.222895 0.971461   
     length 2.31339   
     axis -90 7.62852e-016 20   XYZ
    dof rx rz
    limits (-45.0 90.0)
           (-70.0 20.0)
  end
  begin
     id 5 
     name ltoes
     direction 1.53568e-011 -4.21885e-011 1   
     length 1.15935   
     axis -90 7.62852e-016 20   XYZ
    dof rx
    limits (-90.0 20.0)
  end
  begin
     id 6 
     name rhipjoint
     direction -0.640058 -0.688614 0.340788   
     length 2.48149  
     axis 0 0 0  XYZ 
  end
  begin
     id 7 
     name rfemur
     direction -0.34202 -0.939693 0   
     length 6.57875   
     axis 0 0 -20   XYZ
    dof rx ry rz
    limits (-160.0 20.0)
           (-70.0 70.0)
           (-70.0 60.0)
  end
  begin
     id 8 
     name rtibia
     direction -0.34202 -0.939693 0   
     length 7.977   
     axis 0 0 -20   XYZ
    dof rx
    limits (-10.0 170.0)
 end
 begin
     id 9 
     name rfoot
     direction -0.0979793 -0.269196 0.958089   
     length 2.19857  
     axis -90 -7.62852e-016 -20   XYZ
    dof rx rz
    limits (-45.0 90.0)
           (-20.0 70.0)
  end
  begin
     id 10 
     name rtoes
     direction -1.53556e-011 -4.21868e-011 1   
     length 1.09838   
     axis -90 -7.62852e-016 -20   XYZ
    dof rx
    limits (-90.0 20.0)
  end
  begin
     id 11 
     name lowerback
     direction 0.0149039 0.998517 -0.0523597   
     length 2.10809   
     axis 0 0 0   XYZ
    dof rx ry rz
    limits (-20.0 45.0)
           (-30.0 30.0)
           (-30.0 30.0)
  end
  begin
     id 12 
     name upperback
     direction -0.00882659 0.999418 -0.0329624   
     length 2.1102   
     axis 0 0 0   XYZ
    dof rx ry rz
    limits (-20.0 45.0)
           (-30.0 30.0)
           (-30.0 30.0)
  end
  begin
     id 13 
     name thorax
     direction -0.0165585 0.999826 -0.0085833   
     length 2.11039   
     axis 0 0 0   XYZ
    dof rx ry rz
    limits (-20.0 45.0)
           (-30.0 30.0)
           (-30.0 30.0)
  end
  begin
     id 14 
     name lowerneck
     direction -0.0130877 0.999911 0.00260353   
     length 1.73253   
     axis 0 0 0   XYZ
    dof rx ry rz
    limits (-20.0 45.0)
           (-30.0 30.0)
           (-30.0 30.0)
  end
  begin
     id 15 
     name upperneck
     direction -0.0348454 0.928205 -0.370435   
     length 1.66692   
     axis 0 0 0   XYZ
    dof rx ry rz
    limits (-20.0 45.0)
           (-30.0 30.0)
           (-30.0 30.0)
  end
  begin
     id 16
     name head
     direction -0.00807754 0.992494 -0.122026  
     length 1.72765  
     axis 0 0 0   XYZ
    dof rx ry rz
    limits (-20.0 45.0)
           (-30.0 30.0)
           (-30.0 30.0)
  end
  begin
     id 17 
     name lclavicle
     direction 0.987582 0.144023 0.0627671  
     length 3.49235  
     axis 0 0 0   XYZ
    dof ry rz
    limits (-20.0 10.0)
           (0.0 20.0)
  end
  begin
     id 18 
     name lhumerus
     direction 1 -4.48958e-011 -1.45183e-018   
     length 5.41917   
     axis 180 -30 -90   XYZ
    dof rx ry rz
    limits (-60.0 90.0)
           (-90.0 90.0)
           (-90.0 90.0)
  end
  begin
     id 19
     name lradius
     direction 1 -4.48999e-011 5.75106e-027   
     length 2.44373   
     axis 180 -30 -90   XYZ
    dof rx
    limits (-10.0 170.0)
  end
  begin
     id 20
     name lwrist
     direction 1 -4.48987e-011 1.53461e-026   
     length 1.22186   
     axis -1.09697e-014 90 90   XYZ
    dof ry
    limits (-180.0 0.0)
 end
  begin
     id 21 
     name lhand
     direction 1 -4.48881e-011 3.06923e-026   
     length 0.727502   
     axis -1.95843e-014 90 90   XYZ
    dof rx rz
    limits (-90.0 90.0)
           (-45.0 45.0)
  end
  begin
     id 22 
     name lfingers
     direction 1 -4.48907e-011 6.13845e-026   
     length 0.586531   
     axis -3.91686e-014 90 90   XYZ
    dof rx
    limits (0.0 90.0)
  end
  begin
     id 23
     name lthumb
     direction 0.707107 -6.3487e-011 0.707107   
     length 0.842145   
     axis -90 45 2.85299e-015   XYZ
    dof rx rz
    limits (-45.0 45.0)
           (-45.0 45.0)
  end
  begin
     id 24 
     name rclavicle
     direction -0.980998 0.169556 0.0943023   
     length 3.29272  
     axis 0 0 0   XYZ 
    dof ry rz
    limits (-10.0 20.0)
           (-20.0 0.0)
  end
  begin
     id 25 
     name rhumerus
     direction -1 -1.83355e-005 2.45537e-005  
     length 5.58976   
     axis 180 30 90   XYZ
    dof rx ry rz
    limits (-90.0 60.0)
           (-90.0 90.0)
           (-90.0 90.0)
  end
  begin
     id 26 
     name rradius
     direction -1 -4.48967e-011 5.97228e-027   
     length 2.4806   
     axis 180 30 90   XYZ
    dof rx
    limits (-10.0 170.0)
  end
  begin
     id 27 
     name rwrist
     direction -1 -4.48963e-011 1.53461e-026   
     length 1.2403   
     axis -1.09697e-014 -90 -90   XYZ
    dof ry
    limits (-180.0 0.0)
  end
  begin
     id 28
     name rhand
     direction -1 -4.48881e-011 3.06923e-026   
     length 0.816009   
     axis -1.95843e-014 -90 -90   XYZ
    dof rx rz
    limits (-90.0 90.0)
           (-45.0 45.0)
  end
  begin
     id 29
     name rfingers
     direction -1 -4.49018e-011 6.13845e-026   
     length 0.657887   
     axis -3.91686e-014 -90 -90   XYZ
    dof rx
    limits (0.0 90.0)
  end
  begin
     id 30
     name rthumb
     direction -0.707107 -6.34872e-011 0.707107   
     length 0.944599   
     axis -90 -45 -2.85299e-015   XYZ
    dof rx rz
    limits (-45.0 45.0)
           (-45.0 45.0)
  end
:hierarchy
  begin
    root lhipjoint rhipjoint lowerback
    lhipjoint lfemur
    lfemur ltibia
    ltibia lfoot
    lfoot ltoes
    rhipjoint rfemur
    rfemur rtibia
    rtibia rfoot
    rfoot rtoes
    lowerback upperback
    upperback thorax
    thorax lowerneck lclavicle rclavicle
    lowerneck upperneck
    upperneck head
    lclavicle lhumerus
    lhumerus lradius
    lradius lwrist
    lwrist lhand lthumb
    lhand lfingers
    rclavicle rhumerus
    rhumerus rradius
    rradius rwrist
    rwrist rhand rthumb
    rhand rfingers
  end

#!OML:ASF F:\VICON\USERDATA\INSTALL\rory3\rory3.ASF
:FULLY-SPECIFIED
:DEGREES
1
root -2.88351 17.1557 15.9323 -154.737 -18.9506 -179.665
lowerback -10.1321 2.37497 -0.0246197
upperback -8.11655 2.34364 -0.192357
thorax -2.77034 0.813939 0.00705613
lowerneck -13.1253 2.30464 -0.545957
upperneck 42.2538 -1.49169 0.658922
head 17.9267 -2.11971 -0.358962
rclavicle 9.31803e-016 9.14409e-015
rhumerus -44.2164 -23.9018 -59.8092
rradius -2.40984
rwrist 31.0716
rhand -14.0311 5.43764
rfingers 7.12502
rthumb 12.0992 -24.1925
lclavicle 9.31803e-016 9.14409e-015
lhumerus -50.2403 23.9934 54.4774
lradius 22.4541
lwrist -6.32816
lhand -18.8932 21.488
lfingers 7.12502
lthumb 7.40824 51.3383
rfemur -2.25394 1.02385 23.8502
rtibia 2.22639e-014
rfoot -25.1731 -30.8075
rtoes 13.2871
lfemur -45.1631 5.03063 -30.8943
ltibia 30.2653
lfoot -29.462 23.9888
ltoes 18.5768
2
root -2.91308 17.16 15.8956 -154.486 -19.1177 -179.804
lowerback -10.214 2.19692 -0.22376
upperback -8.2164 2.10221 -0.145691
thorax -2.84149 0.694638 0.149842
lowerneck -13.2537 2.4938 -0.687804
upperneck 42.3973 -1.21831 0.764256
head 18.0442 -2.02703 -0.240486
rclavicle -1.60146e-014 -1.41137e-014
rhumerus -44.4103 -23.578 -59.9007
rradius -2.33539
rwrist 31.4043
rhand -13.6877 5.37642
rfingers 7.12502
rthumb 12.4302 -24.234
lclavicle -1.60146e-014 -1.41137e-014
lhumerus -50.2049 23.416 54.9655
lradius 22.5953
lwrist -6.26372
lhand -18.8617 21.766
lfingers 7.12502
lthumb 7.43863 51.6152
rfemur -2.24077 0.84122 23.9044
rtibia 6.36111e-015
rfoot -24.6502 -31.4862
rtoes 12.5869
lfemur -45.1272 4.80614 -31.0145
ltibia 30.1751
lfoot -29.5262 23.827
ltoes 18.7036
3
root -2.9609 17.1591 15.8451 -154.607 -19.1033 -179.644
lowerback -10.2653 1.97803 -0.124084
upperback -8.05465 1.82523 0.120545
thorax -2.64637 0.566645 0.351478
lowerneck -13.8557 2.75371 -0.950478
upperneck 42.6228 -0.667803 0.675922
head 18.3339 -1.85891 -0.140303
rclavicle 1.69837e-014 1.80894e-014
rhumerus -44.0309 -22.916 -60.157
rradius -2.20261
rwrist 31.5258
rhand -13.2925 5.38749
rfingers 7.12502
rthumb 12.8112 -24.1994
lclavicle 1.69837e-014 1.80894e-014
lhumerus -50.4256 24.239 54.7417
lradius 22.4642
lwrist -6.99162
lhand -18.9588 21.2478
lfingers 7.12502
lthumb 7.34493 51.1003
rfemur -1.81893 0.925172 24.1362
rtibia -1.27222e-014
rfoot -23.658 -32.2498
rtoes 11.1169
lfemur -44.9732 4.66093 -30.8287
ltibia 30.5859
lfoot -30.1647 23.7362
ltoes 18.3219
4
root -3.02942 17.1533 15.7703 -155.765 -18.6991 -178.909
lowerback -10.1245 2.7374 0.935208
upperback -7.90655 2.78754 -0.35936
thorax -2.49498 1.00681 -0.664172
lowerneck -12.5051 2.35001 -0.259361
upperneck 42.3814 -1.75043 0.900771
head 17.8447 -2.18405 -0.351316
rclavicle -3.37002e-014 -1.0635e-014
rhumerus -45.827 -23.9608 -59.4646
rradius -1.91983
rwrist 31.3542
rhand -12.9044 5.21169
rfingers 7.12502
rthumb 13.1853 -24.3514
lclavicle -3.37002e-014 -1.0635e-014
lhumerus -49.7016 22.9215 54.7195
lradius 22.0732
lwrist -8.1015
lhand -18.6642 19.7856
lfingers 7.12502
lthumb 7.6293 49.628
rfemur -0.337928 1.52344 24.759
rtibia 4.13472e-014
rfoot -22.7604 -32.9678
rtoes 9.50333
lfemur -43.7968 5.22121 -30.1649
ltibia 30.9383
lfoot -30.82 23.6336
ltoes 17.7088
5
root -3.06741 17.1502 15.7114 -156.2 -18.4297 -178.831
lowerback -10.1389 2.44148 0.595923
upperback -7.39105 2.48785 0.103782
thorax -1.98609 0.915045 -0.0120953
lowerneck -13.2045 2.50109 -0.706906
upperneck 42.3905 -1.20326 0.7252
head 18.026 -2.03203 -0.252631
rclavicle -5.05162e-014 3.57812e-015
rhumerus -44.4617 -23.3281 -59.8925
rradius -2.53524
rwrist 31.0532
rhand -12.7184 5.3027
rfingers 7.12502
rthumb 13.3647 -24.2487
lclavicle -5.05162e-014 3.57812e-015
lhumerus -49.8351 24.0371 54.8596
lradius 22.2236
lwrist -8.59963
lhand -18.4642 19.1541
lfingers 7.12502
lthumb 7.82227 48.9894
rfemur 0.561245 1.77604 24.9213
rtibia 1.59028e-014
rfoot -21.8394 -33.5143
rtoes 9.13338
lfemur -43.1981 5.15657 -29.9628
ltibia 31.2881
lfoot -31.7494 23.4067
ltoes 18.34
6
root -3.09444 17.1494 15.6739 -156.249 -18.2947 -178.534
lowerback -10.3383 2.47656 0.633078
upperback -7.2595 2.53862 0.243458
thorax -1.74421 0.94729 0.124345
lowerneck -13.4322 2.49047 -0.760569
upperneck 42.4543 -1.18581 0.703997
head 18.1256 -2.03124 -0.251684
rclavicle -3.71479e-015 1.78906e-015
rhumerus -44.2829 -23.2879 -59.9154
rradius -2.60447
rwrist 30.8089
rhand -12.494 5.50006
rfingers 7.12502
rthumb 13.5809 -24.037
lclavicle -3.71479e-015 1.78906e-015
lhumerus -49.5965 23.6799 55.5301
lradius 22.5606
lwrist -8.14253
lhand -18.6497 19.4191
lfingers 7.12502
lthumb 7.64326 49.261
rfemur 0.884057 2.02628 25.3618
rtibia 6.36111e-015
rfoot -20.6349 -34.0975
rtoes 9.45057
lfemur -43.1585 5.03571 -29.5757
ltibia 31.5568
lfoot -32.6922 22.8978
ltoes 19.6284
